<?xml version="1.0" encoding="utf-8"?>
<!-- Generator: Adobe Illustrator 22.1.0, SVG Export Plug-In . SVG Version: 6.00 Build 0)  -->
<svg version="1.1" id="Layer_1" xmlns="http://www.w3.org/2000/svg" xmlns:xlink="http://www.w3.org/1999/xlink" x="0px" y="0px"
	 viewBox="0 0 91.9 72" style="enable-background:new 0 0 91.9 72;" xml:space="preserve">
<style type="text/css">
	.st0{fill:#FFEDC9;}
</style>
<g>
	<path class="st0" d="M4.2,50.1c-0.2,0.6-0.3,1.1-0.3,1.5c0,0.4,0,0.8,0.1,1.4c0,0.4,0.1,0.9,0.3,1.3c0.1,0.4,0.3,0.9,0.6,1.4
		c0.4,0.8,0.9,1.4,1.3,1.8c0.4,0.4,0.9,0.7,1.3,0.8s0.8,0,1.2-0.2c0.3-0.2,0.6-0.5,0.8-0.9c0.2-0.4,0.3-0.9,0.4-1.5s0-1.1-0.1-1.7
		c-0.1-0.6-0.3-1.1-0.5-1.5C8.8,51.7,8,51,7,50.5c-0.4-0.2-0.6-0.4-0.7-0.5c-0.1-0.2-0.1-0.6,0-0.9c0.1-0.5,0.3-0.9,0.6-1.3
		c0.3-0.4,0.5-0.7,0.7-0.9c0.1-0.1,0.3-0.1,0.5-0.1c0.2,0,0.3,0,0.5,0c0.3,0.1,0.7,0.3,1.1,0.8c0.4,0.4,0.8,1,1.1,1.5
		c0.8,1.4,1.2,2.8,1.3,4.3c0.1,1.5-0.1,2.8-0.7,4.1c-0.6,1.2-1.4,2.2-2.5,2.8c-0.6,0.4-1.3,0.6-2.1,0.7S5.2,61,4.6,60.9
		c-1.1-0.3-1.9-1-2.5-2c-0.4-0.6-0.6-1.4-0.8-2.2S1.1,54.9,1.1,54s0.2-1.8,0.4-2.7c0.2-0.9,0.6-1.6,1-2.3c0.4-0.6,0.8-1.2,1.3-1.7
		s1-0.9,1.5-1.2c0.7-0.4,1-0.5,1.2-0.3c0,0.1,0,0.2,0,0.5c-0.1,0.4-0.2,0.7-0.4,0.9c-0.1,0.2-0.4,0.5-0.7,0.9
		c-0.4,0.4-0.6,0.7-0.8,1C4.5,49.3,4.3,49.6,4.2,50.1z"/>
	<path class="st0" d="M17,51.8l0.1,0.2c0.1,0.1,0.1,0.2,0.2,0.4c0.1,0.3,0.2,0.5,0.3,0.8s0.1,0.4,0.1,0.6c0,0.2-0.1,0.4-0.1,0.6
		c-0.2,0.6-0.5,1.1-0.9,1.3c-0.3,0.2-0.7,0.2-1,0.1s-0.6-0.5-1-1.1c-0.3-0.5-0.5-1-0.8-1.8c-0.3-0.7-0.5-1.4-0.7-2l-0.1-0.3
		c0,0,0-0.1-0.1-0.2c-0.2-0.9-0.4-1.6-0.4-2.1s0-0.9,0.1-1.3c0.1-0.3,0.3-0.5,0.6-0.7c0.4-0.2,0.8-0.1,1.2,0.3
		c0-0.1,0.1-0.2,0.1-0.4c0.1-0.3,0.1-0.5,0.2-0.6c0.1-0.1,0.1-0.2,0.3-0.3c0.5-0.3,1,0.1,1.6,1c0.3,0.5,0.6,1.1,0.7,1.7
		c0.2,0.6,0.3,1.1,0.3,1.5c0,0.4-0.1,0.7-0.3,0.8c-0.2,0.1-0.5-0.2-0.9-0.9c-0.2-0.4-0.4-0.7-0.6-0.9s-0.3-0.3-0.5-0.4
		c0,0.4,0.3,1.2,0.9,2.4C16.7,51.1,16.9,51.6,17,51.8z"/>
	<path class="st0" d="M25.9,46.8L25.9,46.8L25.9,46.8c-0.2,1-0.4,1.8-0.6,2.4c-0.2,0.7-0.5,1.2-0.7,1.6s-0.6,0.7-0.9,0.9
		c-0.6,0.4-1.3,0.5-2,0.3s-1.2-0.6-1.6-1.3c-0.2-0.4-0.4-1-0.5-1.6s-0.1-1.4-0.1-2.1c0.1-1.2,0.4-2.4,1-3.6c0.6-1.2,1.3-2,2.2-2.5
		c0.7-0.4,1.4-0.6,2.1-0.6c0.7,0,1.1,0.3,1.4,0.7c0.2,0.3,0.3,0.8,0.3,1.3c0.3-0.2,0.5-0.3,0.6-0.2s0.2,0.2,0.4,0.4
		c0,0,0,0.1,0.2,0.4c0.3,0.6,0.6,1.1,0.9,1.6c0.2,0.3,0.3,0.5,0.3,0.6c0.1,0.1,0.2,0.3,0.3,0.4s0.2,0.3,0.3,0.4
		c0.2,0.2,0.4,0.5,0.7,0.7c-0.2,0.5-0.3,1-0.6,1.3c-0.2,0.3-0.5,0.6-0.8,0.8c-0.9,0.5-1.8,0-2.6-1.5C26,47.1,25.9,46.9,25.9,46.8z
		 M25.2,44.6l-0.1,0.1c-0.4,0.4-0.6,0.6-0.8,0.7c-0.2,0.1-0.4,0.1-0.4,0c0,0,0-0.2,0-0.4c0-0.7-0.1-1.2-0.3-1.7
		c-0.1-0.2-0.3-0.5-0.5-0.6c-0.2-0.2-0.4-0.2-0.5-0.1c-0.1,0.1-0.2,0.2-0.3,0.5C22.1,44,22,44.9,22,45.7c0,0.8,0.2,1.4,0.5,1.9
		c0.2,0.3,0.4,0.5,0.7,0.7c0.3,0.1,0.5,0.1,0.7,0c0.2-0.1,0.4-0.5,0.6-1.1c0.3-0.6,0.5-1.4,0.7-2.3L25.2,44.6L25.2,44.6z"/>
	<path class="st0" d="M32.6,40.2l0.2-0.9c0.2-0.9,0.4-1.6,0.5-2c0.1-0.5,0.3-0.8,0.5-1.1c0.2-0.3,0.4-0.5,0.6-0.6
		c0.4-0.2,0.8-0.3,1.1-0.2c0.3,0.1,0.6,0.5,0.9,1c0.1,0.2,0.3,0.6,0.5,1c0.3,0.6,0.5,1.2,0.8,1.7c0.3,0.6,0.6,1,0.9,1.4
		c0.2,0.2,0.4,0.4,0.6,0.6c0.2,0.2,0.3,0.3,0.3,0.4c0.1,0.1,0.1,0.2,0,0.3c-0.1,0.3-0.2,0.5-0.5,0.8c-0.2,0.3-0.4,0.5-0.6,0.6
		c-0.3,0.2-0.7,0.2-1.1,0.2c-0.4-0.1-0.8-0.3-1.2-0.6c-0.4-0.3-0.7-0.7-1-1.2c-0.2-0.3-0.4-0.8-0.6-1.3l-0.1,0
		c-0.1,0.4-0.2,0.8-0.2,1s-0.1,0.5-0.2,0.7c-0.2,1.1-0.4,2.1-0.5,3c0,0.3-0.1,0.6-0.1,0.9c-0.1,0.3-0.3,0.6-0.5,0.7
		c-0.4,0.2-0.8,0.2-1.1,0.1s-0.7-0.4-1-0.9c-0.2-0.3-0.3-0.6-0.5-1.1s-0.3-0.9-0.5-1.4c-0.2-0.5-0.3-1-0.4-1.6
		c-0.1-0.6-0.2-1.1-0.3-1.6c-0.1-0.9-0.1-1.6,0-2.2c0.1-0.4,0.4-0.7,0.7-0.9c0.6-0.3,1.1-0.1,1.6,0.7C31.9,38.1,32.2,39,32.6,40.2
		L32.6,40.2z"/>
	<path class="st0" d="M45.1,36l-0.1,0.3c0,0,0,0.1,0,0.1c0,0.1,0,0.1-0.1,0.2c-0.6,1.4-1,2.4-1.4,3c-0.4,0.6-0.8,1.1-1.2,1.3
		c-0.5,0.3-0.9,0.3-1.4,0.1c-0.5-0.2-0.9-0.6-1.2-1.1c-0.4-0.7-0.6-1.6-0.7-2.6s0.1-2,0.4-3s0.7-1.9,1.3-2.8c0.6-0.8,1.2-1.5,2-1.9
		c0.7-0.4,1.3-0.6,1.9-0.6c0.5,0,0.9,0.3,1.2,0.8c0.2,0.4,0.4,1,0.4,1.8c0.2-0.1,0.5-0.1,0.6-0.1c0.2,0.1,0.4,0.2,0.5,0.5
		c0.3,0.5,0.5,1.1,0.8,2.1c0.3,0.9,0.5,1.8,0.6,2.6c0.2,1.1,0.1,2.1-0.1,3.1c-0.2,0.7-0.5,1.5-1,2.2c-0.5,0.7-1,1.2-1.5,1.5
		c-0.4,0.2-0.9,0.3-1.4,0.1c-0.5-0.1-0.9-0.4-1.1-0.8c-0.2-0.3-0.2-0.6-0.3-1c0-0.4,0-0.7,0.1-1.1c0.2-0.7,0.6-1.5,1.2-2.5
		c0.1-0.2,0.2-0.3,0.3-0.3c0,0,0.1,0,0.1,0c0,0,0.1,0,0.1,0.1c0,0,0,0.1,0,0.3c0,0.4,0.1,0.9,0.2,1.4c0.1,0.5,0.3,1,0.5,1.3
		c0.2,0.4,0.4,0.6,0.5,0.5c0.1,0,0.1-0.2,0.1-0.4s0-0.4,0-0.6c-0.2-1.5-0.6-2.9-1.1-4C45.3,36.6,45.2,36.3,45.1,36z M44.4,33.9
		L44.4,33.9L44.4,33.9c-0.1,0.1-0.1,0.1-0.2,0.1c-0.1,0.1-0.2,0.2-0.4,0.3c-0.3,0.2-0.5,0.2-0.5,0.1c0-0.1,0-0.1,0-0.3
		c0.1-0.4,0.1-0.8,0-1.3s-0.2-0.9-0.4-1.3c0-0.1-0.1-0.2-0.1-0.2c0,0,0,0,0-0.1c0,0,0,0,0,0c0-0.1-0.1-0.1-0.2,0
		c-0.2,0.1-0.4,0.6-0.6,1.3c-0.1,0.5-0.2,1-0.2,1.6c0,0.6,0,1.1,0.1,1.6c0.1,0.5,0.3,0.9,0.4,1.3c0.2,0.3,0.4,0.5,0.5,0.4
		c0.2-0.1,0.4-0.6,0.8-1.5C43.8,35.4,44.1,34.8,44.4,33.9z"/>
	<path class="st0" d="M52,31.9c0.3,0.3,0.6,0.4,1,0.1c0.4-0.3,0.9-0.8,1.3-1.7c0.2-0.5,0.4-0.8,0.6-0.9c0.2-0.1,0.4-0.1,0.6-0.1
		c0.2,0,0.3,0.1,0.4,0.2c0.1,0.1,0.1,0.3,0,0.6c-0.1,0.5-0.3,1-0.5,1.5c-0.2,0.5-0.5,1-0.7,1.4S54,33.7,53.7,34s-0.6,0.6-0.9,0.7
		c-0.7,0.4-1.4,0.5-2.1,0.4s-1.2-0.6-1.6-1.3c-0.3-0.5-0.5-1.2-0.7-2c-0.2-0.8-0.2-1.6-0.1-2.4c0.1-0.9,0.3-1.8,0.7-2.7
		c0.5-1,1.1-1.7,1.9-2.2c0.5-0.3,1.1-0.4,1.6-0.2c0.5,0.2,0.9,0.6,1.3,1.2c0.3,0.5,0.4,1,0.5,1.7c0,0.7,0,1.4-0.2,2.1
		c-0.2,0.6-0.4,1.2-0.6,1.6s-0.5,0.7-0.8,0.9C52.4,31.9,52.2,31.9,52,31.9z M51.9,31.7c0.2-0.3,0.3-0.6,0.3-0.9
		c0.1-0.6,0.1-1.1,0-1.7c-0.1-0.4-0.2-0.8-0.3-1.2c-0.2-0.4-0.3-0.8-0.5-1.2c-0.2-0.3-0.3-0.4-0.5-0.4c-0.2,0.1-0.2,0.7-0.1,1.7
		c0.1,0.6,0.2,1.2,0.3,1.8c0.1,0.6,0.3,1,0.5,1.4C51.6,31.3,51.7,31.5,51.9,31.7z"/>
	<path class="st0" d="M58.7,21.4l0.1,0.9c0.1,1.1,0.3,2.2,0.5,3.3c0.1,0.5,0.3,1.4,0.6,2.7c0.5-0.3,1-0.8,1.8-1.4
		c0.5-0.4,0.7-0.6,0.9-0.7c0.2-0.1,0.4-0.1,0.4,0.1c0.1,0.2,0.2,0.5,0.1,1c0,0.5-0.1,0.9-0.2,1.3c-0.1,0.3-0.3,0.6-0.6,0.9
		c-0.3,0.3-0.9,0.7-1.7,1.1c-0.7,0.4-1.3,0.7-1.8,0.9c0,0-0.1,0-0.3,0.1c-0.4,0.1-0.7-0.1-1-0.6c-0.2-0.3-0.4-1-0.7-1.9
		s-0.6-2.2-1-3.6c-0.8-3.3-1.2-5.3-1.2-6.2c0-0.3,0.1-0.6,0.2-0.8s0.3-0.5,0.6-0.7c0.3-0.3,0.6-0.5,1.1-0.7c0.4-0.2,0.7-0.3,0.9-0.3
		s0.4,0.1,0.5,0.4c0.1,0.2,0.3,0.7,0.5,1.5C58.4,19.2,58.6,20.2,58.7,21.4z"/>
	<path class="st0" d="M66.3,19l-0.1-0.4c-0.2-0.7-0.2-1.2-0.1-1.7c0.1-0.3,0.2-0.6,0.4-0.9c0.2-0.3,0.4-0.5,0.6-0.6
		c0.4-0.2,0.7-0.2,0.9,0.2c0.1,0.2,0.2,0.4,0.3,0.8c0.1,0.4,0.2,0.9,0.3,1.4c0.1,0.5,0.1,1.1,0.2,1.8c0.1,0.6,0.1,1.3,0.2,2
		c0.1,1.3,0.1,2.5,0,3.5c-0.1,0.7-0.2,1.4-0.4,2c-0.2,0.6-0.4,1.2-0.6,1.8s-0.5,1-0.8,1.4c-0.3,0.4-0.6,0.7-0.9,0.8
		c-0.3,0.2-0.5,0.1-0.6-0.1c-0.1-0.2-0.2-0.4-0.2-0.7s-0.1-0.6-0.1-0.9c0-0.3,0.1-0.6,0.3-0.9c0.2-0.4,0.5-0.9,0.9-1.5
		c-0.7-0.4-1.2-0.7-1.6-0.9c-0.4-0.2-0.8-0.6-1.3-0.9c-1.1-0.9-2-1.7-2.5-2.7c-0.4-0.7-0.6-1.3-0.7-1.9c-0.1-0.5,0.1-0.9,0.4-1.3
		c0.3-0.3,0.5-0.6,0.8-0.7c0.4-0.2,0.7-0.2,1,0s0.8,0.8,1.5,1.8c0.8,1.1,1.6,2.1,2.4,3.1c0.1,0.1,0.3,0.3,0.5,0.6l0,0
		c0-0.4-0.1-0.9-0.2-1.5c0-0.2-0.1-0.8-0.3-1.9C66.5,19.9,66.4,19.4,66.3,19z"/>
	<path class="st0" d="M74.2,16.3l0.2-0.9c0.2-0.9,0.4-1.6,0.5-2c0.1-0.5,0.3-0.8,0.5-1.1c0.2-0.3,0.4-0.5,0.6-0.6
		c0.4-0.2,0.8-0.3,1.1-0.2s0.6,0.5,0.9,1c0.1,0.2,0.3,0.6,0.5,1c0.3,0.6,0.5,1.2,0.8,1.7c0.3,0.6,0.6,1,0.9,1.4
		c0.2,0.2,0.4,0.4,0.6,0.6c0.2,0.2,0.3,0.3,0.3,0.4c0.1,0.1,0.1,0.2,0,0.3c-0.1,0.3-0.2,0.5-0.5,0.8c-0.2,0.3-0.4,0.5-0.6,0.6
		c-0.3,0.2-0.7,0.2-1.1,0.2s-0.8-0.3-1.2-0.6s-0.7-0.7-1-1.2c-0.2-0.3-0.4-0.8-0.6-1.3l-0.1,0c-0.1,0.4-0.2,0.8-0.2,1
		s-0.1,0.5-0.2,0.7c-0.2,1.1-0.4,2.1-0.5,3c0,0.3-0.1,0.6-0.1,0.9c-0.1,0.3-0.3,0.6-0.5,0.7c-0.4,0.2-0.8,0.2-1.1,0.1
		c-0.4-0.1-0.7-0.4-1-0.9c-0.2-0.3-0.3-0.6-0.5-1.1s-0.3-0.9-0.5-1.4s-0.3-1-0.4-1.6c-0.1-0.6-0.2-1.1-0.3-1.6
		c-0.1-0.9-0.1-1.6,0-2.2c0.1-0.4,0.4-0.7,0.7-0.9c0.6-0.3,1.1-0.1,1.6,0.7C73.4,14.2,73.7,15.1,74.2,16.3L74.2,16.3z"/>
	<path class="st0" d="M85,13.7l0,0.1c0,0,0,0.1-0.1,0.2c0,0.1-0.1,0.2-0.1,0.2c-0.3,1-0.6,1.7-0.8,2.1c-0.2,0.4-0.4,0.7-0.7,0.8
		c-0.3,0.2-0.7,0.3-1,0.2c-0.3-0.1-0.6-0.3-0.8-0.6c-0.2-0.4-0.2-0.8-0.1-1.3c0-0.1,0.1-0.4,0.3-0.9c0.3-0.7,0.5-1.2,0.6-1.5
		c0.1-0.4,0.2-0.7,0.2-1c-0.5-0.4-1-0.7-1.5-1c-0.3-0.2-0.6-0.3-0.8-0.5c-0.4-0.2-0.7-0.3-1-0.4c-0.3-0.1-0.6-0.1-0.8-0.1
		c-0.3,0-0.5-0.1-0.6-0.2c-0.1-0.1,0-0.3,0.2-0.5c0.2-0.2,0.4-0.4,0.8-0.6c0.8-0.4,1.5-0.6,2.3-0.6c0.2,0,0.4,0,0.6,0.1
		c0.2,0,0.4,0.1,0.6,0.1c0.3,0.1,0.5,0.1,0.8,0.2c0.1-0.9,0.3-1.6,0.6-2.2s0.6-1,0.9-1.2c0.2-0.1,0.5-0.2,0.8-0.3
		c0.3,0,0.4,0,0.5,0.1C86,5.4,86.1,5.7,86,6.2c0,0.4-0.1,1-0.2,1.7c-0.1,0.6-0.2,1-0.2,1.1c0,0.1,0,0.4-0.1,0.9l4,2.1
		c0.2,0.1,0.4,0.3,0.5,0.4c0.1,0.2,0.1,0.6-0.2,1c-0.3,0.4-0.6,0.8-1,1c-0.8,0.5-1.6,0.5-2.3,0.2C86.1,14.4,85.6,14.1,85,13.7z"/>
</g>
</svg>
